<?xml version="1.0" encoding="UTF-8"?>
<svg version="1.1" xmlns="http://www.w3.org/2000/svg" width="2000" height="1500">
<path d="M0 0 C660 0 1320 0 2000 0 C2000 495 2000 990 2000 1500 C1340 1500 680 1500 0 1500 C0 1005 0 510 0 0 Z " fill="#FFFEFE" transform="translate(0,0)"/>
<path d="M0 0 C93.39 0 186.78 0 283 0 C284.65 6.27 286.3 12.54 288 19 C289.52712963 24.42637974 289.52712963 24.42637974 291.0559082 29.85229492 C293.35053944 38.09909708 295.37923874 46.41410695 297.41357422 54.72827148 C298.82841085 60.47352763 300.31631286 66.18031496 301.96484375 71.86328125 C304.17762499 79.50666073 306.10045542 87.21225253 308 94.9375 C311.21883341 107.99357869 314.55171981 121.00731889 318.25 133.9375 C321.07885426 143.97186162 323.55939386 154.09602538 326.05761719 164.21655273 C328.95194707 175.92670667 332.00636252 187.58596304 335.3125 199.1875 C337.88432008 208.31576592 340.15950781 217.5160494 342.41333008 226.72729492 C343.82825287 232.47287598 345.31621919 238.17999205 346.96484375 243.86328125 C349.17762499 251.50666073 351.10045542 259.21225253 353 266.9375 C356.23943139 280.07712721 359.60316025 293.1710896 363.3125 306.1875 C365.9181601 315.43163817 368.2173941 324.75073978 370.5012207 334.07885742 C371.98238416 340.09238957 373.54742693 346.03610026 375.4440918 351.93310547 C376.1775089 354.65998697 376.22137351 357.19593552 376 360 C377.65 360 379.3 360 381 360 C381.0825 358.824375 381.165 357.64875 381.25 356.4375 C381.94951154 350.283689 383.67515794 344.43746491 385.32275391 338.48730469 C386.70213839 333.42127401 388.00011894 328.33371168 389.3125 323.25 C389.92180491 320.89581519 390.53118104 318.54164882 391.140625 316.1875 C391.44806641 314.99898437 391.75550781 313.81046875 392.07226562 312.5859375 C393.56739404 306.80687272 395.06472481 301.0283793 396.5625 295.25 C396.99912964 293.56535645 396.99912964 293.56535645 397.44458008 291.84667969 C399.53272671 283.79348579 401.63088828 275.74294081 403.73291016 267.69335938 C406.53837682 256.94555178 409.32327772 246.19242114 412.10888672 235.43945312 C413.57185949 229.79277906 415.03598125 224.14640295 416.5 218.5 C417.08333898 216.25000146 417.66667231 214.00000146 418.25 211.75 C437.5 137.5 437.5 137.5 456.75 63.25 C457.0389917 62.1352832 457.3279834 61.02056641 457.62573242 59.87207031 C458.20655651 57.63181835 458.78744796 55.39158385 459.3684082 53.15136719 C460.86569812 47.37736679 462.3616626 41.60302775 463.85546875 35.828125 C465.31379115 30.19148913 466.7753892 24.55571577 468.24072266 18.92089844 C468.72044711 17.0754247 469.19939151 15.22974786 469.67724609 13.38378906 C470.23972418 11.21327489 470.80642384 9.04392316 471.375 6.875 C471.67148437 5.73804688 471.96796875 4.60109375 472.2734375 3.4296875 C473 1 473 1 474 0 C563.76 0 653.52 0 746 0 C746 205.59 746 411.18 746 623 C680.66 623 615.32 623 548 623 C547.87900595 559.80077601 547.87900595 559.80077601 547.85351562 533.00585938 C547.84764569 526.87719702 547.8415853 520.74853489 547.83520508 514.61987305 C547.83441383 513.8521847 547.83362259 513.08449634 547.83280736 512.29354471 C547.81990701 500.04450582 547.79634133 487.79551101 547.76854161 475.54649789 C547.74006841 462.89121653 547.72373753 450.23595755 547.71773452 437.5806455 C547.71405625 430.50797199 547.70545276 423.43538951 547.68280983 416.3627491 C547.5251453 365.55013257 549.41930264 315.02528033 554.73962402 264.47723389 C555.00264404 261.97484448 555.26197853 259.47209533 555.52050781 256.96923828 C557.45568602 238.28450409 559.56794511 219.62732947 562 201 C561.01 201.33 560.02 201.66 559 202 C558.01831766 204.34533608 558.01831766 204.34533608 557.38671875 207.265625 C557.11150391 208.37228516 556.83628906 209.47894531 556.55273438 210.61914062 C556.12444336 212.41641602 556.12444336 212.41641602 555.6875 214.25 C555.06857431 216.74533042 554.4474589 219.24011867 553.82421875 221.734375 C553.51661621 222.97380859 553.20901367 224.21324219 552.89208984 225.49023438 C551.69710951 230.19166768 550.36731861 234.8463191 549 239.5 C546.65342094 247.54451398 544.51619938 255.63232053 542.4375 263.75 C540.40352803 271.69217626 538.2955321 279.58618582 535.91381836 287.43066406 C533.92376535 294.07225387 532.21938823 300.78409898 530.5 307.5 C528.44538308 315.52529856 526.32084958 323.5033354 523.9140625 331.4296875 C521.92405953 338.07164547 520.21947284 344.7837685 518.5 351.5 C516.44538308 359.52529856 514.32084958 367.5033354 511.9140625 375.4296875 C509.92405953 382.07164547 508.21947284 388.7837685 506.5 395.5 C504.44538308 403.52529856 502.32084958 411.5033354 499.9140625 419.4296875 C497.92405953 426.07164547 496.21947284 432.7837685 494.5 439.5 C492.44538308 447.52529856 490.32084958 455.5033354 487.9140625 463.4296875 C485.92405953 470.07164547 484.21947284 476.7837685 482.5 483.5 C480.44538308 491.52529856 478.32084958 499.5033354 475.9140625 507.4296875 C473.92405953 514.07164547 472.21947284 520.7837685 470.5 527.5 C468.44538308 535.52529856 466.32084958 543.5033354 463.9140625 551.4296875 C461.92405772 558.07165151 460.21960521 564.78379741 458.5 571.5 C456.22460995 580.38110506 453.83899058 589.20266574 451.1953125 597.98046875 C449.57800183 603.36295427 448.09853249 608.78391736 446.61083984 614.20336914 C445.79762301 617.15970253 444.96982512 620.09052464 444 623 C392.19 623 340.38 623 287 623 C280.16251103 599.06878861 280.16251103 599.06878861 277.9375 590.8125 C277.43517242 588.96216447 276.93256445 587.11190505 276.4296875 585.26171875 C276.18831055 584.37274902 275.94693359 583.4837793 275.69824219 582.56787109 C273.0298438 572.75450948 270.29259156 562.96664802 267.41162109 553.21337891 C264.67580701 543.94502106 262.11549282 534.67360383 259.83935547 525.28198242 C258.44674168 519.60575196 256.8467727 514.02202254 255.125 508.4375 C252.3164277 499.316935 249.9064073 490.11316888 247.54003906 480.86914062 C245.33074861 472.24285447 243.00775837 463.65679213 240.58837891 455.08740234 C239.57082841 451.4774203 238.56664461 447.8637299 237.5625 444.25 C237.35866699 443.5170874 237.15483398 442.7841748 236.94482422 442.02905273 C235.27771385 436.02447611 233.63676113 430.01291063 232 424 C228.56071877 411.37696719 225.11802297 398.76107258 221.41162109 386.21337891 C218.67580701 376.94502106 216.11549282 367.67360383 213.83935547 358.28198242 C212.44674168 352.60575196 210.8467727 347.02202254 209.125 341.4375 C206.31505443 332.31247545 203.90567488 323.10382314 201.53564453 313.85595703 C198.67228913 302.68586356 195.65291906 291.57369829 192.3828125 280.515625 C188.86730581 268.61888923 185.56948195 256.693121 182.49145508 244.67529297 C180.2894538 236.08044507 177.98025663 227.52427268 175.55419922 218.99023438 C174.98373127 216.9415759 174.44409881 214.88658228 173.91015625 212.828125 C173.73508545 212.17046143 173.56001465 211.51279785 173.37963867 210.83520508 C172.90967351 209.0678905 172.45049711 207.2977167 171.9921875 205.52734375 C171.66476562 204.69332031 171.33734375 203.85929688 171 203 C170.01 202.67 169.02 202.34 168 202 C168.19577637 203.38445312 168.19577637 203.38445312 168.39550781 204.796875 C174.93921399 251.18728234 180.87557934 297.58893019 182.88665581 344.43274593 C182.96169486 346.13238588 183.04073604 347.83185426 183.12394905 349.53111362 C184.36537245 375.273847 184.13180032 401.04270356 184.10353815 426.80781013 C184.09626164 433.62580914 184.09487648 440.44380608 184.09374207 447.26180842 C184.09157077 459.41371889 184.08496373 471.56562252 184.07543945 483.7175293 C184.06621497 495.49943 184.05917051 507.28132882 184.05493164 519.06323242 C184.05466364 519.80078374 184.05439565 520.53833507 184.05411953 521.29823643 C184.05180568 527.71710142 184.04965335 534.13596646 184.04751682 540.5548315 C184.03816142 568.03656078 184.0182253 595.51827185 184 623 C123.28 623 62.56 623 0 623 C0 417.41 0 211.82 0 0 Z " fill="#FF5E5E" transform="translate(261,431)"/>
<path d="M0 0 C322.13028169 0 322.13028169 0 361 7 C362.08861328 7.18820312 363.17722656 7.37640625 364.29882812 7.5703125 C379.16437451 10.15263092 393.6239844 13.41863239 408 18 C409.07556152 18.33596191 410.15112305 18.67192383 411.25927734 19.01806641 C459.2606912 34.1632586 504.97260538 60.51767251 536 101 C536.41427246 101.53254395 536.82854492 102.06508789 537.25537109 102.61376953 C570.16621353 145.10177678 586.64910866 196.78295748 593.3125 249.5625 C593.47177979 250.80789551 593.63105957 252.05329102 593.79516602 253.33642578 C596.09016737 272.65489998 596.23861022 292.06768696 596.25 311.5 C596.25100708 312.70188965 596.25201416 313.9037793 596.25305176 315.14208984 C596.23767682 342.42265058 594.9927477 369.36294876 589.55615234 396.16845703 C589.13543301 398.3104688 588.74523992 400.4585064 588.36962891 402.60888672 C586.6414594 412.48170577 584.24089414 422.02399491 581.375 431.625 C581.15757141 432.35990662 580.94014282 433.09481323 580.71612549 433.85198975 C575.21410019 452.3658117 568.09818443 469.95624314 559 487 C558.66033203 487.64598145 558.32066406 488.29196289 557.97070312 488.95751953 C542.58784096 518.05461869 519.92671287 544.95312146 493 564 C492.27216309 564.52335938 491.54432617 565.04671875 490.79443359 565.5859375 C468.59948415 581.41927723 444.63446744 592.89870631 419 602 C417.62740586 602.50336582 416.25498097 603.0071937 414.8828125 603.51171875 C397.90764672 609.50406569 380.25247069 613.11765818 362.5625 616.25 C361.86305267 616.37478729 361.16360535 616.49957458 360.44296265 616.62814331 C243.68105188 637.2993883 106.32410268 623 0 623 C0 417.41 0 211.82 0 0 Z " fill="#FF5E5E" transform="translate(1129,431)"/>
<path d="M0 0 C126.37910073 0 126.37910073 0 159.125 31.625 C186.01473122 58.79768938 192.15240178 98.76100757 192.16796875 135.39453125 C192.17119114 137.19081141 192.17455591 138.98709133 192.17805481 140.78337097 C192.18402135 144.54300543 192.18589751 148.302617 192.18530273 152.06225586 C192.1852218 155.87610652 192.19211476 159.68983626 192.20581055 163.50366211 C192.34953462 204.13396261 192.34953462 204.13396261 190 221 C189.78887573 222.64560913 189.78887573 222.64560913 189.57348633 224.32446289 C185.62191125 252.84906162 173.45428377 282.18312469 150.10546875 300.23828125 C106.2697306 331.77669019 52.47607095 324 0 324 C0 217.08 0 110.16 0 0 Z " fill="#FFFEFE" transform="translate(1329,581)"/>
</svg>
